<mxfile host="app.diagrams.net" modified="2023-10-31T12:46:36.201Z" agent="Mozilla/5.0 (Windows NT 10.0; Win64; x64) AppleWebKit/537.36 (KHTML, like Gecko) Chrome/118.0.0.0 Safari/537.36 Edg/118.0.2088.69" etag="IeYmPZd5atjWdNAN6lNR" version="21.3.7" type="github" pages="2">
  <diagram name="Page-1" id="ZMt9X7-xspIY9BGcwzsm">
    <mxGraphModel dx="1318" dy="700" grid="1" gridSize="10" guides="1" tooltips="1" connect="1" arrows="1" fold="1" page="1" pageScale="1" pageWidth="850" pageHeight="1100" math="0" shadow="0">
      <root>
        <mxCell id="0" />
        <mxCell id="1" parent="0" />
        <mxCell id="a5GZaIF6uCHFCOEcbvDH-11" style="edgeStyle=orthogonalEdgeStyle;rounded=0;orthogonalLoop=1;jettySize=auto;html=1;exitX=0.25;exitY=0;exitDx=0;exitDy=0;entryX=0.5;entryY=1;entryDx=0;entryDy=0;endArrow=none;endFill=0;" edge="1" parent="1" source="a5GZaIF6uCHFCOEcbvDH-2" target="a5GZaIF6uCHFCOEcbvDH-3">
          <mxGeometry relative="1" as="geometry" />
        </mxCell>
        <mxCell id="a5GZaIF6uCHFCOEcbvDH-12" style="edgeStyle=orthogonalEdgeStyle;rounded=0;orthogonalLoop=1;jettySize=auto;html=1;exitX=0.75;exitY=0;exitDx=0;exitDy=0;entryX=0.5;entryY=1;entryDx=0;entryDy=0;strokeColor=default;endArrow=none;endFill=0;" edge="1" parent="1" source="a5GZaIF6uCHFCOEcbvDH-2" target="a5GZaIF6uCHFCOEcbvDH-4">
          <mxGeometry relative="1" as="geometry" />
        </mxCell>
        <mxCell id="a5GZaIF6uCHFCOEcbvDH-13" style="edgeStyle=orthogonalEdgeStyle;rounded=0;orthogonalLoop=1;jettySize=auto;html=1;exitX=0.25;exitY=1;exitDx=0;exitDy=0;entryX=0.5;entryY=0;entryDx=0;entryDy=0;endArrow=none;endFill=0;" edge="1" parent="1" source="a5GZaIF6uCHFCOEcbvDH-2" target="a5GZaIF6uCHFCOEcbvDH-5">
          <mxGeometry relative="1" as="geometry" />
        </mxCell>
        <mxCell id="a5GZaIF6uCHFCOEcbvDH-14" style="edgeStyle=orthogonalEdgeStyle;rounded=0;orthogonalLoop=1;jettySize=auto;html=1;exitX=0.75;exitY=1;exitDx=0;exitDy=0;entryX=0.5;entryY=0;entryDx=0;entryDy=0;endArrow=none;endFill=0;" edge="1" parent="1" source="a5GZaIF6uCHFCOEcbvDH-2" target="a5GZaIF6uCHFCOEcbvDH-6">
          <mxGeometry relative="1" as="geometry" />
        </mxCell>
        <mxCell id="a5GZaIF6uCHFCOEcbvDH-17" style="edgeStyle=orthogonalEdgeStyle;rounded=0;orthogonalLoop=1;jettySize=auto;html=1;exitX=1;exitY=0.5;exitDx=0;exitDy=0;entryX=0;entryY=0.5;entryDx=0;entryDy=0;endArrow=none;endFill=0;" edge="1" parent="1" source="a5GZaIF6uCHFCOEcbvDH-2" target="a5GZaIF6uCHFCOEcbvDH-8">
          <mxGeometry relative="1" as="geometry" />
        </mxCell>
        <mxCell id="a5GZaIF6uCHFCOEcbvDH-2" value="APPLICANT" style="rounded=0;whiteSpace=wrap;html=1;" vertex="1" parent="1">
          <mxGeometry x="150" y="260" width="120" height="60" as="geometry" />
        </mxCell>
        <mxCell id="a5GZaIF6uCHFCOEcbvDH-3" value="USER PROFILE" style="rounded=0;whiteSpace=wrap;html=1;" vertex="1" parent="1">
          <mxGeometry x="80" y="120" width="120" height="60" as="geometry" />
        </mxCell>
        <mxCell id="a5GZaIF6uCHFCOEcbvDH-4" value="ACCOUNT SETTINGS" style="rounded=0;whiteSpace=wrap;html=1;" vertex="1" parent="1">
          <mxGeometry x="220" y="120" width="120" height="60" as="geometry" />
        </mxCell>
        <mxCell id="a5GZaIF6uCHFCOEcbvDH-5" value="LOGIN" style="rounded=0;whiteSpace=wrap;html=1;" vertex="1" parent="1">
          <mxGeometry x="80" y="380" width="120" height="60" as="geometry" />
        </mxCell>
        <mxCell id="a5GZaIF6uCHFCOEcbvDH-6" value="REGISTER" style="rounded=0;whiteSpace=wrap;html=1;" vertex="1" parent="1">
          <mxGeometry x="220" y="380" width="120" height="60" as="geometry" />
        </mxCell>
        <mxCell id="a5GZaIF6uCHFCOEcbvDH-7" value="CAREER SEARCH" style="rounded=0;whiteSpace=wrap;html=1;" vertex="1" parent="1">
          <mxGeometry x="480" y="480" width="120" height="60" as="geometry" />
        </mxCell>
        <mxCell id="a5GZaIF6uCHFCOEcbvDH-18" style="edgeStyle=orthogonalEdgeStyle;rounded=0;orthogonalLoop=1;jettySize=auto;html=1;exitX=0.5;exitY=0;exitDx=0;exitDy=0;entryX=0.5;entryY=1;entryDx=0;entryDy=0;endArrow=none;endFill=0;" edge="1" parent="1" source="a5GZaIF6uCHFCOEcbvDH-8" target="a5GZaIF6uCHFCOEcbvDH-19">
          <mxGeometry relative="1" as="geometry">
            <mxPoint x="419.89473684210543" y="190" as="targetPoint" />
          </mxGeometry>
        </mxCell>
        <mxCell id="a5GZaIF6uCHFCOEcbvDH-8" value="VIEW CAREERS" style="rounded=0;whiteSpace=wrap;html=1;" vertex="1" parent="1">
          <mxGeometry x="390" y="260" width="120" height="60" as="geometry" />
        </mxCell>
        <mxCell id="a5GZaIF6uCHFCOEcbvDH-9" value="ABOUT DOST-SEI" style="rounded=0;whiteSpace=wrap;html=1;" vertex="1" parent="1">
          <mxGeometry x="650" y="90" width="120" height="60" as="geometry" />
        </mxCell>
        <mxCell id="a5GZaIF6uCHFCOEcbvDH-10" value="LOW-LEVEL DIAGRAM" style="text;html=1;strokeColor=none;fillColor=none;align=center;verticalAlign=middle;whiteSpace=wrap;rounded=0;" vertex="1" parent="1">
          <mxGeometry x="260" y="30" width="140" height="30" as="geometry" />
        </mxCell>
        <mxCell id="a5GZaIF6uCHFCOEcbvDH-16" style="edgeStyle=orthogonalEdgeStyle;rounded=0;orthogonalLoop=1;jettySize=auto;html=1;exitX=0.5;exitY=0;exitDx=0;exitDy=0;entryX=0.5;entryY=1;entryDx=0;entryDy=0;endArrow=none;endFill=0;" edge="1" parent="1" source="a5GZaIF6uCHFCOEcbvDH-15" target="a5GZaIF6uCHFCOEcbvDH-9">
          <mxGeometry relative="1" as="geometry" />
        </mxCell>
        <mxCell id="a5GZaIF6uCHFCOEcbvDH-15" value="DOST-SEI" style="rounded=0;whiteSpace=wrap;html=1;" vertex="1" parent="1">
          <mxGeometry x="650" y="260" width="120" height="60" as="geometry" />
        </mxCell>
        <mxCell id="a5GZaIF6uCHFCOEcbvDH-19" value="SEARCH CAREER" style="rounded=0;whiteSpace=wrap;html=1;" vertex="1" parent="1">
          <mxGeometry x="390" y="120" width="120" height="60" as="geometry" />
        </mxCell>
      </root>
    </mxGraphModel>
  </diagram>
  <diagram id="mKtFdArxPz_b5ZVtfMza" name="Flowchart">
    <mxGraphModel dx="2087" dy="1108" grid="1" gridSize="10" guides="1" tooltips="1" connect="1" arrows="1" fold="1" page="1" pageScale="1" pageWidth="850" pageHeight="1100" math="0" shadow="0">
      <root>
        <mxCell id="0" />
        <mxCell id="1" parent="0" />
        <mxCell id="QHAMvGme8Z4ZHNlBu4qs-9" style="edgeStyle=orthogonalEdgeStyle;rounded=0;orthogonalLoop=1;jettySize=auto;html=1;exitX=0.5;exitY=1;exitDx=0;exitDy=0;entryX=0.5;entryY=0;entryDx=0;entryDy=0;" edge="1" parent="1" source="QHAMvGme8Z4ZHNlBu4qs-1" target="QHAMvGme8Z4ZHNlBu4qs-2">
          <mxGeometry relative="1" as="geometry" />
        </mxCell>
        <mxCell id="QHAMvGme8Z4ZHNlBu4qs-1" value="START" style="ellipse;whiteSpace=wrap;html=1;aspect=fixed;" vertex="1" parent="1">
          <mxGeometry x="320" y="30" width="80" height="80" as="geometry" />
        </mxCell>
        <mxCell id="QHAMvGme8Z4ZHNlBu4qs-10" style="edgeStyle=orthogonalEdgeStyle;rounded=0;orthogonalLoop=1;jettySize=auto;html=1;exitX=0.5;exitY=1;exitDx=0;exitDy=0;entryX=0.5;entryY=0;entryDx=0;entryDy=0;" edge="1" parent="1" source="QHAMvGme8Z4ZHNlBu4qs-2" target="QHAMvGme8Z4ZHNlBu4qs-4">
          <mxGeometry relative="1" as="geometry" />
        </mxCell>
        <mxCell id="QHAMvGme8Z4ZHNlBu4qs-2" value="SHOW LIST OF CAREERS" style="rounded=0;whiteSpace=wrap;html=1;" vertex="1" parent="1">
          <mxGeometry x="300" y="150" width="120" height="60" as="geometry" />
        </mxCell>
        <mxCell id="QHAMvGme8Z4ZHNlBu4qs-6" value="NO" style="edgeStyle=orthogonalEdgeStyle;rounded=0;orthogonalLoop=1;jettySize=auto;html=1;exitX=0;exitY=0.5;exitDx=0;exitDy=0;entryX=1;entryY=0.5;entryDx=0;entryDy=0;" edge="1" parent="1" source="QHAMvGme8Z4ZHNlBu4qs-3" target="QHAMvGme8Z4ZHNlBu4qs-5">
          <mxGeometry relative="1" as="geometry" />
        </mxCell>
        <mxCell id="QHAMvGme8Z4ZHNlBu4qs-8" value="YES" style="edgeStyle=orthogonalEdgeStyle;rounded=0;orthogonalLoop=1;jettySize=auto;html=1;exitX=1;exitY=0.5;exitDx=0;exitDy=0;entryX=0;entryY=0.5;entryDx=0;entryDy=0;" edge="1" parent="1" source="QHAMvGme8Z4ZHNlBu4qs-3" target="QHAMvGme8Z4ZHNlBu4qs-7">
          <mxGeometry relative="1" as="geometry" />
        </mxCell>
        <mxCell id="QHAMvGme8Z4ZHNlBu4qs-3" value="DO YOU&lt;br&gt;HAVE AN EXISTING&lt;br&gt;ACCOUNT?" style="rhombus;whiteSpace=wrap;html=1;" vertex="1" parent="1">
          <mxGeometry x="282.5" y="350" width="155" height="90" as="geometry" />
        </mxCell>
        <mxCell id="QHAMvGme8Z4ZHNlBu4qs-11" style="edgeStyle=orthogonalEdgeStyle;rounded=0;orthogonalLoop=1;jettySize=auto;html=1;exitX=0.5;exitY=1;exitDx=0;exitDy=0;entryX=0.5;entryY=0;entryDx=0;entryDy=0;" edge="1" parent="1" source="QHAMvGme8Z4ZHNlBu4qs-4" target="QHAMvGme8Z4ZHNlBu4qs-3">
          <mxGeometry relative="1" as="geometry" />
        </mxCell>
        <mxCell id="QHAMvGme8Z4ZHNlBu4qs-4" value="APPLY FOR A CAREER" style="rounded=0;whiteSpace=wrap;html=1;" vertex="1" parent="1">
          <mxGeometry x="300" y="250" width="120" height="60" as="geometry" />
        </mxCell>
        <mxCell id="QHAMvGme8Z4ZHNlBu4qs-13" style="edgeStyle=orthogonalEdgeStyle;rounded=0;orthogonalLoop=1;jettySize=auto;html=1;exitX=0.5;exitY=1;exitDx=0;exitDy=0;entryX=0.5;entryY=0;entryDx=0;entryDy=0;" edge="1" parent="1" source="QHAMvGme8Z4ZHNlBu4qs-5" target="QHAMvGme8Z4ZHNlBu4qs-12">
          <mxGeometry relative="1" as="geometry" />
        </mxCell>
        <mxCell id="QHAMvGme8Z4ZHNlBu4qs-5" value="REGISTER" style="rounded=0;whiteSpace=wrap;html=1;" vertex="1" parent="1">
          <mxGeometry x="90" y="365" width="120" height="60" as="geometry" />
        </mxCell>
        <mxCell id="QHAMvGme8Z4ZHNlBu4qs-7" value="LOGIN" style="rounded=0;whiteSpace=wrap;html=1;" vertex="1" parent="1">
          <mxGeometry x="510" y="365" width="120" height="60" as="geometry" />
        </mxCell>
        <mxCell id="QHAMvGme8Z4ZHNlBu4qs-12" value="INPUT E-MAIL ADDRESS, PASSWORD, AND CONFIRM PASSWORD" style="shape=parallelogram;perimeter=parallelogramPerimeter;whiteSpace=wrap;html=1;fixedSize=1;" vertex="1" parent="1">
          <mxGeometry x="50" y="660" width="200" height="80" as="geometry" />
        </mxCell>
        <mxCell id="QHAMvGme8Z4ZHNlBu4qs-14" value="" style="shape=parallelogram;perimeter=parallelogramPerimeter;whiteSpace=wrap;html=1;fixedSize=1;" vertex="1" parent="1">
          <mxGeometry x="310" y="510" width="120" height="60" as="geometry" />
        </mxCell>
      </root>
    </mxGraphModel>
  </diagram>
</mxfile>
